<svg width="29" height="29" viewBox="0 0 29 29" fill="none" xmlns="http://www.w3.org/2000/svg">
<g clip-path="url(#clip0_1917_18610)">
<path d="M21.0123 11.8118C20.9818 11.1184 20.8696 10.6417 20.709 10.2287C20.5433 9.7902 20.2884 9.39764 19.9544 9.07131C19.628 8.7399 19.2329 8.48237 18.7995 8.31926C18.384 8.15863 17.9098 8.0465 17.2164 8.01593C16.5179 7.98277 16.2961 7.9751 14.5243 7.9751C12.7525 7.9751 12.5308 7.98277 11.8348 8.01334C11.1414 8.04391 10.6647 8.15614 10.2517 8.31667C9.81314 8.48237 9.42059 8.73731 9.09426 9.07131C8.76284 9.39764 8.50542 9.79279 8.34221 10.2262C8.18158 10.6417 8.06945 11.1158 8.03888 11.8092C8.00571 12.5078 7.99805 12.7296 7.99805 14.5014C7.99805 16.2732 8.00571 16.4949 8.03629 17.1909C8.06686 17.8843 8.17909 18.361 8.33972 18.7741C8.50542 19.2125 8.76284 19.6051 9.09426 19.9314C9.42059 20.2628 9.81573 20.5204 10.2491 20.6835C10.6647 20.8441 11.1388 20.9562 11.8323 20.9868C12.5282 21.0175 12.75 21.0251 14.5218 21.0251C16.2936 21.0251 16.5154 21.0175 17.2114 20.9868C17.9048 20.9562 18.3815 20.8441 18.7944 20.6835C19.6715 20.3444 20.3648 19.651 20.7039 18.7741C20.8645 18.3585 20.9767 17.8843 21.0073 17.1909C21.0378 16.4949 21.0455 16.2732 21.0455 14.5014C21.0455 12.7296 21.0429 12.5078 21.0123 11.8118ZM19.8372 17.1399C19.8091 17.7773 19.702 18.1214 19.6128 18.3509C19.3935 18.9194 18.9423 19.3706 18.3738 19.5899C18.1443 19.6791 17.7977 19.7861 17.1629 19.8141C16.4745 19.8448 16.2681 19.8524 14.5269 19.8524C12.7857 19.8524 12.5767 19.8448 11.8908 19.8141C11.2535 19.7861 10.9094 19.6791 10.6799 19.5899C10.397 19.4853 10.1395 19.3196 9.93045 19.1029C9.71376 18.8913 9.54805 18.6364 9.44349 18.3534C9.35427 18.124 9.24721 17.7773 9.21923 17.1425C9.18856 16.4542 9.18099 16.2477 9.18099 14.5065C9.18099 12.7652 9.18856 12.5562 9.21923 11.8705C9.24721 11.2332 9.35427 10.889 9.44349 10.6596C9.54805 10.3765 9.71376 10.1191 9.93304 9.91C10.1446 9.6933 10.3995 9.5276 10.6825 9.42313C10.9119 9.33391 11.2587 9.22686 11.8934 9.19877C12.5817 9.1682 12.7883 9.16053 14.5294 9.16053C16.2732 9.16053 16.4796 9.1682 17.1654 9.19877C17.8028 9.22686 18.1469 9.33391 18.3764 9.42313C18.6593 9.5276 18.9168 9.6933 19.1258 9.91C19.3425 10.1216 19.5082 10.3765 19.6128 10.6596C19.702 10.889 19.8091 11.2356 19.8372 11.8705C19.8677 12.5588 19.8754 12.7652 19.8754 14.5065C19.8754 16.2477 19.8677 16.4516 19.8372 17.1399Z" fill="#B3B3B3"/>
<path d="M14.5242 11.1489C12.6735 11.1489 11.1719 12.6504 11.1719 14.5013C11.1719 16.3521 12.6735 17.8537 14.5242 17.8537C16.3751 17.8537 17.8766 16.3521 17.8766 14.5013C17.8766 12.6504 16.3751 11.1489 14.5242 11.1489ZM14.5242 16.6759C13.3236 16.6759 12.3496 15.7021 12.3496 14.5013C12.3496 13.3005 13.3236 12.3267 14.5242 12.3267C15.725 12.3267 16.6988 13.3005 16.6988 14.5013C16.6988 15.7021 15.725 16.6759 14.5242 16.6759V16.6759Z" fill="#B3B3B3"/>
<path d="M18.7919 11.0165C18.7919 11.4487 18.4415 11.7991 18.0092 11.7991C17.577 11.7991 17.2266 11.4487 17.2266 11.0165C17.2266 10.5842 17.577 10.2339 18.0092 10.2339C18.4415 10.2339 18.7919 10.5842 18.7919 11.0165V11.0165Z" fill="#B3B3B3"/>
</g>
<defs>
<clipPath id="clip0_1917_18610">
<rect width="13.05" height="13.05" fill="white" transform="translate(7.9751 7.9751)"/>
</clipPath>
</defs>
</svg>
