<svg width="29" height="29" viewBox="0 0 29 29" fill="none" xmlns="http://www.w3.org/2000/svg">
<g clip-path="url(#clip0_1917_18609)">
<path d="M14.6775 7.9751C11.1009 7.9751 9.19873 10.2671 9.19873 12.7663C9.19873 13.9253 9.84637 15.3707 10.8831 15.8291C11.0405 15.9001 11.1261 15.8699 11.1612 15.7239C11.1922 15.613 11.3284 15.0787 11.3945 14.8267C11.4149 14.7459 11.4043 14.6758 11.339 14.5999C10.9948 14.2019 10.7216 13.4767 10.7216 12.7965C10.7216 11.0534 12.1074 9.36091 14.4655 9.36091C16.5046 9.36091 17.9312 10.6855 17.9312 12.5803C17.9312 14.7214 16.7982 16.2027 15.326 16.2027C14.5111 16.2027 13.9043 15.5632 14.0968 14.772C14.3292 13.8299 14.7852 12.8169 14.7852 12.1374C14.7852 11.5281 14.441 11.024 13.7379 11.024C12.9084 11.024 12.2354 11.8454 12.2354 12.9482C12.2354 13.6488 12.4834 14.1219 12.4834 14.1219C12.4834 14.1219 11.6628 17.4368 11.5103 18.0559C11.2526 19.104 11.5454 20.8014 11.5707 20.9474C11.5862 21.0281 11.6767 21.0534 11.7273 20.9873C11.808 20.8813 12.7999 19.4661 13.078 18.4433C13.1792 18.0705 13.5943 16.5591 13.5943 16.5591C13.8676 17.0526 14.6563 17.4661 15.4965 17.4661C17.9956 17.4661 19.8015 15.2696 19.8015 12.5436C19.7925 9.93024 17.556 7.9751 14.6775 7.9751Z" fill="#B3B3B3"/>
</g>
<defs>
<clipPath id="clip0_1917_18609">
<rect width="13.05" height="13.05" fill="white" transform="translate(7.9751 7.9751)"/>
</clipPath>
</defs>
</svg>
