<svg width="18" height="18" viewBox="0 0 18 18" fill="none" xmlns="http://www.w3.org/2000/svg">
<path d="M1.5376 1.53748H3.0376L5.0326 10.8525C5.10578 11.1936 5.2956 11.4986 5.56938 11.7149C5.84316 11.9312 6.18378 12.0452 6.5326 12.0375H13.8676C14.209 12.0369 14.54 11.9199 14.8059 11.7059C15.0718 11.4918 15.2567 11.1934 15.3301 10.86L16.5676 5.28748H3.8401M6.7501 15.75C6.7501 16.1642 6.41431 16.5 6.0001 16.5C5.58588 16.5 5.2501 16.1642 5.2501 15.75C5.2501 15.3358 5.58588 15 6.0001 15C6.41431 15 6.7501 15.3358 6.7501 15.75ZM15.0001 15.75C15.0001 16.1642 14.6643 16.5 14.2501 16.5C13.8359 16.5 13.5001 16.1642 13.5001 15.75C13.5001 15.3358 13.8359 15 14.2501 15C14.6643 15 15.0001 15.3358 15.0001 15.75Z" stroke="black" stroke-width="0.75" stroke-linecap="round" stroke-linejoin="round"/>
</svg>
