<svg width="29" height="29" viewBox="0 0 29 29" fill="none" xmlns="http://www.w3.org/2000/svg">
<g clip-path="url(#clip0_1917_18608)">
<path d="M21.0251 10.4537C20.5398 10.6666 20.0227 10.8077 19.4836 10.8762C20.0382 10.5451 20.4615 10.0247 20.6605 9.3975C20.1434 9.70581 19.5725 9.92358 18.964 10.0451C18.473 9.52229 17.7732 9.19849 17.0098 9.19849C15.5286 9.19849 14.3362 10.4007 14.3362 11.8746C14.3362 12.0866 14.3541 12.2905 14.3981 12.4846C12.1739 12.3762 10.2058 11.3101 8.8837 9.68623C8.65288 10.0867 8.51749 10.5451 8.51749 11.0385C8.51749 11.9651 8.99463 12.7864 9.70585 13.2619C9.27602 13.2538 8.85434 13.129 8.4971 12.9324C8.4971 12.9406 8.4971 12.9512 8.4971 12.9618C8.4971 14.2619 9.42446 15.3418 10.6406 15.5905C10.4228 15.6501 10.1854 15.6786 9.93912 15.6786C9.76784 15.6786 9.59493 15.6688 9.43262 15.633C9.77926 16.6924 10.7629 17.4714 11.9325 17.4967C11.0223 18.2087 9.86653 18.6377 8.61536 18.6377C8.39596 18.6377 8.18553 18.6279 7.9751 18.601C9.1602 19.3653 10.5647 19.8016 12.0793 19.8016C17.0024 19.8016 19.694 15.7235 19.694 12.1886C19.694 12.0703 19.6899 11.9561 19.6842 11.8427C20.2152 11.4659 20.6613 10.9953 21.0251 10.4537Z" fill="#B3B3B3"/>
</g>
<defs>
<clipPath id="clip0_1917_18608">
<rect width="13.05" height="13.05" fill="white" transform="translate(7.9751 7.9751)"/>
</clipPath>
</defs>
</svg>
