<svg width="16" height="17" viewBox="0 0 16 17" fill="none" xmlns="http://www.w3.org/2000/svg">
<path d="M10.375 16.2087V9.54207C10.375 9.32105 10.2872 9.10909 10.1309 8.95281C9.97464 8.79653 9.76268 8.70873 9.54167 8.70873H6.20833C5.98732 8.70873 5.77536 8.79653 5.61908 8.95281C5.4628 9.10909 5.375 9.32105 5.375 9.54207V16.2087M0.375 7.04207C0.374942 6.79962 0.427778 6.56009 0.529823 6.34016C0.631868 6.12024 0.780665 5.92523 0.965833 5.76873L6.79917 0.768733C7.09999 0.51449 7.48113 0.375 7.875 0.375C8.26887 0.375 8.65001 0.51449 8.95083 0.768733L14.7842 5.76873C14.9693 5.92523 15.1181 6.12024 15.2202 6.34016C15.3222 6.56009 15.3751 6.79962 15.375 7.04207V14.5421C15.375 14.9841 15.1994 15.408 14.8868 15.7206C14.5743 16.0331 14.1504 16.2087 13.7083 16.2087H2.04167C1.59964 16.2087 1.17572 16.0331 0.863155 15.7206C0.550595 15.408 0.375 14.9841 0.375 14.5421V7.04207Z" stroke="black" stroke-width="0.75" stroke-linecap="round" stroke-linejoin="round"/>
</svg>
